<svg xmlns="http://www.w3.org/2000/svg" viewBox="0 0 217.13 22.36"><defs><style>.cls-1{fill:#06c755;}</style></defs><g id="design"><path class="cls-1" d="M85,11.72a1.07,1.07,0,0,0-1.32-.24l-2.07,1.14a1.07,1.07,0,0,0-.53.73,1,1,0,0,0,.22.87,24.12,24.12,0,0,1,1.81,2.58c-2.84.23-3.42.27-6.29.34a75.69,75.69,0,0,0,3.4-8,1.11,1.11,0,0,0-.08-.89,1.07,1.07,0,0,0-.73-.51L77.1,7.31A1.05,1.05,0,0,0,75.9,8a83.64,83.64,0,0,1-3.61,9.21H70.55a1.09,1.09,0,0,0-.8.36,1,1,0,0,0-.26.84l.29,2.17a1.05,1.05,0,0,0,1.1.92h.23c5.36-.22,10.42-.43,14.11-.94l.43.9a1.05,1.05,0,0,0,1,.63A1,1,0,0,0,87,22l2.5-1.09a1.07,1.07,0,0,0,.58-.62,1,1,0,0,0,0-.82A37.43,37.43,0,0,0,85,11.72Z"/><path class="cls-1" d="M85.2,1.14A1.05,1.05,0,0,0,84,.55l-2.11.59a1.05,1.05,0,0,0-.67.55,1,1,0,0,0,0,.86,23.28,23.28,0,0,0,6.17,8.83,1,1,0,0,0,.7.27h.1a1.08,1.08,0,0,0,.73-.39l1.59-2a1.05,1.05,0,0,0-.15-1.46A19.74,19.74,0,0,1,85.2,1.14Z"/><path class="cls-1" d="M71.12,11.71h.12a1.09,1.09,0,0,0,.71-.26,22.42,22.42,0,0,0,6.18-9,1,1,0,0,0,0-.84,1,1,0,0,0-.67-.54L75.27.55a1,1,0,0,0-1.22.6,17.54,17.54,0,0,1-5,6.5,1,1,0,0,0-.19,1.44l1.58,2.19A1,1,0,0,0,71.12,11.71Z"/><path class="cls-1" d="M134.91,1.63H116.79a1,1,0,0,0-1,1V4.82a1,1,0,0,0,1,1h13.77a8.44,8.44,0,0,1-3.41,3.92c0-.36.06-.69.08-1.15a1,1,0,0,0-.27-.73,1,1,0,0,0-.71-.31h-2.48a1,1,0,0,0-1,1c-.07,4.18-1.1,7.41-5.92,9.56a1,1,0,0,0-.57.69,1,1,0,0,0,.2.85L118,21.42a1,1,0,0,0,.76.37,1.08,1.08,0,0,0,.43-.1c6.52-3.21,7.4-7.79,7.78-10.41l1.61,1.6a1,1,0,0,0,1.25.12c3.58-2.35,5.34-5.62,6.07-10.21a1,1,0,0,0-1-1.16Z"/><path class="cls-1" d="M154.91,4.27h-7.07c.09-1.25.14-1.49.18-2.48a.93.93,0,0,0-.26-.69.92.92,0,0,0-.67-.29h-2.58a1.14,1.14,0,0,0-1.14,1.12c0,.79,0,1.11-.11,2.35H138a1.14,1.14,0,0,0-1.14,1.14v2A1.14,1.14,0,0,0,138,8.55h4.75a13.2,13.2,0,0,1-6,9.25,1.13,1.13,0,0,0-.25,1.72l1.53,1.71a1.16,1.16,0,0,0,1.51.17,18.89,18.89,0,0,0,7.75-12.85h4.19V9.9a48.94,48.94,0,0,1-.43,6.1c-.2,1-.4,1.27-1.77,1.27a16.29,16.29,0,0,1-1.85-.12,1.11,1.11,0,0,0-.9.3,1.14,1.14,0,0,0-.36.9l.13,2.2a1.13,1.13,0,0,0,1,1.06,24.07,24.07,0,0,0,2.64.14c1.45,0,3.87,0,5-2.69,1-2.37,1.06-9,1.06-10.82V5.41A1.14,1.14,0,0,0,154.91,4.27Z"/><path class="cls-1" d="M176.73,3.54h-6.54V1.72a.93.93,0,0,0-.93-.92h-2.64a.93.93,0,0,0-.93.92V3.54h-6.26a.93.93,0,0,0-.93.92v7.45a.93.93,0,0,0,.93.93h2.5a.93.93,0,0,0,.93-.93V7.72h10c-.12,5.53-3.86,9.12-11.12,9.79a.92.92,0,0,0-.7.42.93.93,0,0,0-.09.81l.84,2.38a.94.94,0,0,0,.87.63h.1c10-1,14.89-6.78,14.89-16.63V4.46A.92.92,0,0,0,176.73,3.54Z"/><path class="cls-1" d="M186.34,9.22a.91.91,0,0,0,.5.15l.23,0a1,1,0,0,0,.58-.44l1.41-2.44a.9.9,0,0,0,.1-.7,1,1,0,0,0-.44-.57,31.24,31.24,0,0,0-6.57-2.84.92.92,0,0,0-1.1.45L179.9,5a.94.94,0,0,0,0,.77.89.89,0,0,0,.54.53A29.84,29.84,0,0,1,186.34,9.22Z"/><path class="cls-1" d="M199.37,5.38l-2.3-1.57a.93.93,0,0,0-.84-.11.91.91,0,0,0-.57.61c-1.15,3.93-2.92,7.09-5,8.9-2.26,2-5.65,3.27-10.07,3.74a.94.94,0,0,0-.65.38.93.93,0,0,0-.16.74l.64,2.94a1,1,0,0,0,.91.74l.14,0c8.47-1.31,14.82-4.42,18.25-15.31A.91.91,0,0,0,199.37,5.38Z"/><path class="cls-1" d="M216.65,10.66a53.17,53.17,0,0,0-10.37-4.39l0-4.54A.94.94,0,0,0,205.3.8l-3,0a.92.92,0,0,0-.93.94l.13,19a.94.94,0,0,0,.94.94l3,0a1,1,0,0,0,.94-.95L206.31,11a40.45,40.45,0,0,1,7.87,4.18.91.91,0,0,0,.75.13,1,1,0,0,0,.6-.49L217,11.9A.93.93,0,0,0,216.65,10.66Z"/><path class="cls-1" d="M108.5,1,110.86,0a.55.55,0,0,1,.55.08,12.56,12.56,0,0,1,1.7,2.15.54.54,0,0,1-.22.81l-2.46,1.09a.54.54,0,0,1-.67-.19c-.37-.56-.92-1.45-1.48-2.15A.54.54,0,0,1,108.5,1Z"/><path class="cls-1" d="M109.88,22.36A4.2,4.2,0,0,1,107,21c-3.26-3.55-3.55-9.93-3.68-13.5H92.71a.85.85,0,0,1-.85-.85V4.51a.85.85,0,0,1,.85-.84h10.43c0-.55-.06-1.58-.08-2.23a.81.81,0,0,1,.24-.61.83.83,0,0,1,.61-.26h2.47a.86.86,0,0,1,.85.85V3.67h5.43a.85.85,0,0,1,.85.84V6.66a.85.85,0,0,1-.85.85h-5.35c.14,2.14.4,5.86,1.61,8.62.37.81.71,1.18,1,1.21s1-.49,1.61-1.24a.75.75,0,0,1,.7-.28.92.92,0,0,1,.7.57s.64,1,1.11,1.83-.19,1.63-.5,2A6.57,6.57,0,0,1,109.88,22.36Zm-6.61-15h0ZM92.83,21.79a.87.87,0,0,1-.54-.19A.84.84,0,0,1,92,21l-.25-2.4a.84.84,0,0,1,.2-.63.86.86,0,0,1,.58-.31l1.38-.11,1.47-.13V13H93.13a.85.85,0,0,1-.85-.85V10a.85.85,0,0,1,.85-.85h8.42a.85.85,0,0,1,.85.85v2.15a.85.85,0,0,1-.85.85H99.39v4.13c.84-.1,1.43-.15,1.9-.19s.8-.07,1.13-.13a.84.84,0,0,1,.68.19.88.88,0,0,1,.31.64l0,2.08a.85.85,0,0,1-.68.84c-2.15.43-9.53,1.2-9.84,1.23Z"/><rect class="cls-1" x="16.7" y="0.8" width="4.81" height="20.91" rx="0.86"/><path class="cls-1" d="M41.92.8H38.83a.86.86,0,0,0-.86.86v11.4L29.17,1.18l-.06-.09h0L29.05,1h0L29,1l0,0,0,0h0l0,0h0l-.05,0h0l-.05,0H25.37a.86.86,0,0,0-.86.86V20.85a.87.87,0,0,0,.86.86h3.09a.86.86,0,0,0,.86-.86V9.45l8.81,11.89a.88.88,0,0,0,.21.22h0l.06,0h0l0,0a.05.05,0,0,1,0,0h.1a.78.78,0,0,0,.22,0h3.09a.87.87,0,0,0,.86-.86V1.66A.86.86,0,0,0,41.92.8Z"/><path class="cls-1" d="M13.2,16.9H4.81V1.66A.86.86,0,0,0,4,.8H.86A.85.85,0,0,0,0,1.66V20.85H0a.83.83,0,0,0,.24.59v0h0a.87.87,0,0,0,.6.24H13.2a.86.86,0,0,0,.86-.86V17.76A.85.85,0,0,0,13.2,16.9Z"/><path class="cls-1" d="M59,.8H46.64A.87.87,0,0,0,46,1h0v0a.83.83,0,0,0-.24.59h0V20.85h0a.83.83,0,0,0,.24.59v0h0a.83.83,0,0,0,.59.24H59a.86.86,0,0,0,.86-.86V17.76A.85.85,0,0,0,59,16.9H50.59V13.66H59a.86.86,0,0,0,.86-.86V9.71A.85.85,0,0,0,59,8.85H50.59V5.61H59a.86.86,0,0,0,.86-.86V1.66A.85.85,0,0,0,59,.8Z"/></g></svg>